<?xml version="1.0" encoding="UTF-8" standalone="no"?>
<!DOCTYPE svg PUBLIC "-//W3C//DTD SVG 1.1//EN"
 "http://www.w3.org/Graphics/SVG/1.1/DTD/svg11.dtd">
<!-- Generated by graphviz version 2.30.1 (20130221.2233)
 -->
<!-- Title: G Pages: 1 -->
<svg width="260pt" height="572pt"
 viewBox="0.00 0.00 260.00 572.00" xmlns="http://www.w3.org/2000/svg" xmlns:xlink="http://www.w3.org/1999/xlink">
<g id="graph0" class="graph" transform="scale(1 1) rotate(0) translate(4 568)">
<title>G</title>
<polygon fill="white" stroke="white" points="-4,5 -4,-568 257,-568 257,5 -4,5"/>
<!-- a1 -->
<g id="node1" class="node"><title>a1</title>
<ellipse fill="none" stroke="black" cx="213" cy="-546" rx="27" ry="18"/>
<text text-anchor="middle" x="213" y="-542.3" font-family="Times,serif" font-size="14.00">a1</text>
</g>
<!-- a2 -->
<g id="node2" class="node"><title>a2</title>
<ellipse fill="none" stroke="black" cx="180" cy="-458" rx="27" ry="18"/>
<text text-anchor="middle" x="180" y="-454.3" font-family="Times,serif" font-size="14.00">a2</text>
</g>
<!-- a1&#45;&#45;a2 -->
<g id="edge1" class="edge"><title>a1&#45;&#45;a2</title>
<path fill="none" stroke="black" d="M206.637,-528.418C200.794,-513.19 192.181,-490.743 186.343,-475.531"/>
<text text-anchor="middle" x="207.5" y="-498.3" font-family="Times,serif" font-size="14.00"> e1</text>
</g>
<!-- a7 -->
<g id="node7" class="node"><title>a7</title>
<ellipse fill="none" stroke="black" cx="166" cy="-18" rx="27" ry="18"/>
<text text-anchor="middle" x="166" y="-14.3" font-family="Times,serif" font-size="14.00">a7</text>
</g>
<!-- a1&#45;&#45;a7 -->
<g id="edge9" class="edge"><title>a1&#45;&#45;a7</title>
<path fill="none" stroke="black" d="M219.84,-528.511C226.298,-511.43 235,-483.812 235,-459 235,-459 235,-459 235,-105 235,-72.8412 205.284,-45.8537 184.855,-31.0998"/>
<text text-anchor="middle" x="243.5" y="-278.3" font-family="Times,serif" font-size="14.00"> e3</text>
</g>
<!-- a3 -->
<g id="node3" class="node"><title>a3</title>
<ellipse fill="none" stroke="black" cx="134" cy="-370" rx="27" ry="18"/>
<text text-anchor="middle" x="134" y="-366.3" font-family="Times,serif" font-size="14.00">a3</text>
</g>
<!-- a2&#45;&#45;a3 -->
<g id="edge2" class="edge"><title>a2&#45;&#45;a3</title>
<path fill="none" stroke="black" d="M169.508,-441.214C165.719,-435.284 161.513,-428.423 158,-422 151.895,-410.839 145.802,-397.862 141.282,-387.791"/>
<text text-anchor="middle" x="166.5" y="-410.3" font-family="Times,serif" font-size="14.00"> e4</text>
</g>
<!-- a2&#45;&#45;a7 -->
<g id="edge8" class="edge"><title>a2&#45;&#45;a7</title>
<path fill="none" stroke="black" d="M182.848,-439.922C185.484,-422.608 189,-395.019 189,-371 189,-371 189,-371 189,-105 189,-80.117 179.903,-52.5172 173.151,-35.4596"/>
<text text-anchor="middle" x="197.5" y="-234.3" font-family="Times,serif" font-size="14.00"> e2</text>
</g>
<!-- a4 -->
<g id="node4" class="node"><title>a4</title>
<ellipse fill="none" stroke="black" cx="89" cy="-282" rx="27" ry="18"/>
<text text-anchor="middle" x="89" y="-278.3" font-family="Times,serif" font-size="14.00">a4</text>
</g>
<!-- a3&#45;&#45;a4 -->
<g id="edge3" class="edge"><title>a3&#45;&#45;a4</title>
<path fill="none" stroke="black" d="M124.039,-353.164C120.427,-347.229 116.402,-340.377 113,-334 107.012,-322.776 100.916,-309.8 96.3667,-299.746"/>
<text text-anchor="middle" x="121.5" y="-322.3" font-family="Times,serif" font-size="14.00"> e7</text>
</g>
<!-- a3&#45;&#45;a7 -->
<g id="edge7" class="edge"><title>a3&#45;&#45;a7</title>
<path fill="none" stroke="black" d="M137.164,-351.935C140.094,-334.631 144,-307.05 144,-283 144,-283 144,-283 144,-105 144,-80.1877 152.702,-52.5697 159.16,-35.4888"/>
<text text-anchor="middle" x="152.5" y="-190.3" font-family="Times,serif" font-size="14.00"> e5</text>
</g>
<!-- a5 -->
<g id="node5" class="node"><title>a5</title>
<ellipse fill="none" stroke="black" cx="27" cy="-194" rx="27" ry="18"/>
<text text-anchor="middle" x="27" y="-190.3" font-family="Times,serif" font-size="14.00">a5</text>
</g>
<!-- a4&#45;&#45;a5 -->
<g id="edge4" class="edge"><title>a4&#45;&#45;a5</title>
<path fill="none" stroke="black" d="M75.3502,-266.07C70.0363,-260.007 64.0286,-252.832 59,-246 50.6972,-234.719 42.3189,-221.275 36.2189,-211.022"/>
<text text-anchor="middle" x="67.5" y="-234.3" font-family="Times,serif" font-size="14.00"> e8</text>
</g>
<!-- a6 -->
<g id="node6" class="node"><title>a6</title>
<ellipse fill="none" stroke="black" cx="89" cy="-106" rx="27" ry="18"/>
<text text-anchor="middle" x="89" y="-102.3" font-family="Times,serif" font-size="14.00">a6</text>
</g>
<!-- a4&#45;&#45;a6 -->
<g id="edge5" class="edge"><title>a4&#45;&#45;a6</title>
<path fill="none" stroke="black" d="M89,-263.999C89,-230.735 89,-157.39 89,-124.07"/>
<text text-anchor="middle" x="97.5" y="-190.3" font-family="Times,serif" font-size="14.00"> e9</text>
</g>
<!-- a5&#45;&#45;a6 -->
<g id="edge6" class="edge"><title>a5&#45;&#45;a6</title>
<path fill="none" stroke="black" d="M33.4837,-176.073C37.879,-165.715 44.2846,-152.483 52,-142 57.7654,-134.166 65.4075,-126.603 72.2491,-120.523"/>
<text text-anchor="middle" x="64" y="-146.3" font-family="Times,serif" font-size="14.00"> e10</text>
</g>
<!-- a6&#45;&#45;a7 -->
<g id="edge10" class="edge"><title>a6&#45;&#45;a7</title>
<path fill="none" stroke="black" d="M94.3096,-88.0465C98.2446,-77.4228 104.418,-63.9142 113,-54 121.805,-43.8288 134.254,-35.4032 144.875,-29.3693"/>
<text text-anchor="middle" x="121.5" y="-58.3" font-family="Times,serif" font-size="14.00"> e6</text>
</g>
</g>
</svg>
